<svg width="100%" height="100%" viewBox="0 0 225 225" version="1.1" xmlns="http://www.w3.org/2000/svg" xmlns:xlink="http://www.w3.org/1999/xlink" xml:space="preserve" xmlns:serif="http://www.serif.com/" style="fill-rule:evenodd;clip-rule:evenodd;stroke-linejoin:round;stroke-miterlimit:2;"><g transform="matrix(1,0,0,1,-1706.27,-1847.4)"><g transform="matrix(-0.834925,0,0,-0.834925,2894.61,2609.08)"><path style="fill: #000811" d="M1378.38,822.441L1378.33,822.441C1353.56,822.465 1333.46,842.581 1333.46,867.355C1333.46,892.144 1313.34,912.27 1288.55,912.27C1263.76,912.27 1243.63,892.144 1243.63,867.355C1243.63,842.567 1263.76,822.441 1288.55,822.441C1312.86,822.441 1332.69,803.079 1333.44,778.945C1333.42,778.474 1333.42,778.002 1333.42,777.527C1333.42,752.738 1313.29,732.613 1288.5,732.613C1263.71,732.613 1243.59,712.487 1243.59,687.699C1243.59,662.91 1263.71,642.784 1288.5,642.784C1313.29,642.784 1333.42,662.91 1333.42,687.699C1333.42,712.487 1353.54,732.613 1378.33,732.613L1378.38,732.613C1403.16,732.613 1423.29,752.738 1423.29,777.527C1423.29,802.316 1403.16,822.441 1378.38,822.441ZM1198.72,732.613C1223.51,732.613 1243.63,752.738 1243.63,777.527C1243.63,802.316 1223.51,822.441 1198.72,822.441C1173.93,822.441 1153.8,802.316 1153.8,777.527C1153.8,752.738 1173.93,732.613 1198.72,732.613Z"/></g></g></svg>
